<?xml version="1.0" encoding="UTF-8" standalone="no"?>
<svg
   xmlns:dc="http://purl.org/dc/elements/1.1/"
   xmlns:cc="http://creativecommons.org/ns#"
   xmlns:rdf="http://www.w3.org/1999/02/22-rdf-syntax-ns#"
   xmlns:svg="http://www.w3.org/2000/svg"
   xmlns="http://www.w3.org/2000/svg"
   xmlns:sodipodi="http://sodipodi.sourceforge.net/DTD/sodipodi-0.dtd"
   xmlns:inkscape="http://www.inkscape.org/namespaces/inkscape"
   width="210mm"
   height="297mm"
   viewBox="0 0 210 297"
   version="1.1"
   id="svg1132"
   inkscape:version="1.0.2-2 (e86c870879, 2021-01-15)"
   sodipodi:docname="drawing-1.svg">
  <defs
     id="defs1126" />
  <sodipodi:namedview
     id="base"
     pagecolor="#ffffff"
     bordercolor="#666666"
     borderopacity="1.0"
     inkscape:pageopacity="0.0"
     inkscape:pageshadow="2"
     inkscape:zoom="0.35"
     inkscape:cx="400"
     inkscape:cy="560"
     inkscape:document-units="mm"
     inkscape:current-layer="layer1"
     inkscape:document-rotation="0"
     showgrid="false"
     inkscape:window-width="1920"
     inkscape:window-height="1011"
     inkscape:window-x="2391"
     inkscape:window-y="410"
     inkscape:window-maximized="1" />
  <metadata
     id="metadata1129">
    <rdf:RDF>
      <cc:Work
         rdf:about="">
        <dc:format>image/svg+xml</dc:format>
        <dc:type
           rdf:resource="http://purl.org/dc/dcmitype/StillImage" />
        <dc:title></dc:title>
      </cc:Work>
    </rdf:RDF>
  </metadata>
  <g
     inkscape:label="Layer 1"
     inkscape:groupmode="layer"
     id="layer1">
    <path
       d="m 104.62074,196.76534 3.00111,5.31457 2.20064,1.77098 v 2.30374 h -8.20267 l -5.201748,-3.01246 -0.20002,-5.13698 8.402688,-1.23985"
       style="fill:#16232c;fill-opacity:1;fill-rule:nonzero;stroke:none;stroke-width:0.0173149"
       id="path822" />
    <path
       d="m 101.96522,203.33442 c -0.198,0.0847 -0.0248,0.34703 0.17279,0.26231 1.92019,-0.82602 4.08182,-1.14698 6.20076,-0.94007 l -0.41826,-0.33562 c -2.04423,-0.1336 -4.10833,0.21832 -5.95529,1.01338"
       style="fill:#2e5068;fill-opacity:1;fill-rule:nonzero;stroke:none;stroke-width:0.0173149"
       id="path824" />
    <path
       d="m 100.86425,202.34385 c 2.31124,-0.40568 4.69681,-0.42198 7.01485,-0.057 l -0.25725,-0.20691 -0.10728,-0.19062 c -2.40785,-0.29652 -7.862058,-0.11079 -6.65032,0.45456"
       style="fill:#2e5068;fill-opacity:1;fill-rule:nonzero;stroke:none;stroke-width:0.0173149"
       id="path826" />
    <path
       d="m 96.406482,202.84565 c 4.039318,2.04144 8.779188,2.98313 13.416008,2.66543 v -0.30304 c -4.64805,0.32259 -9.40227,-0.63866 -13.429808,-2.71756 l 0.0138,0.35517"
       style="fill:#2e5068;fill-opacity:1;fill-rule:nonzero;stroke:none;stroke-width:0.0173149"
       id="path828" />
    <path
       d="m 120.426,195.70308 c 0.40023,1.06226 4.00142,4.9594 4.00142,4.9594 l 5.48844,1.93064 0.80028,1.59339 -13.89114,-0.15803 -6.20223,-1.23985 -1.00031,-3.18841 2.60087,-7.08555 8.20267,3.18841"
       style="fill:#16232c;fill-opacity:1;fill-rule:nonzero;stroke:none;stroke-width:0.0173149"
       id="path830" />
    <path
       d="m 130.13778,203.03464 c -1.83629,0.0521 -3.67553,0.18248 -5.5085,0.22647 -4.88653,0.013 -9.96885,-0.36006 -14.50428,-2.05936 l 0.11373,0.36169 c 6.00442,2.17503 12.77692,2.17503 19.17403,1.79379 0.29056,-0.0114 0.5813,-0.0212 0.87223,-0.0293 l -0.14721,-0.29326"
       style="fill:#2e5068;fill-opacity:1;fill-rule:nonzero;stroke:none;stroke-width:0.0173149"
       id="path832" />
    <path
       d="m 121.0535,201.90884 c 1.47156,-0.35354 2.96191,-0.64029 4.46439,-0.86186 l -0.58848,-0.20692 c -1.51832,0.23461 -4.87236,0.74782 -3.87591,1.06878"
       style="fill:#2e5068;fill-opacity:1;fill-rule:nonzero;stroke:none;stroke-width:0.0173149"
       id="path834" />
    <path
       d="m 118.43569,201.52597 c 2.03503,-0.45456 4.12047,-0.71849 6.21604,-0.78366 l -0.22431,-0.0798 c 0,0 -0.0567,-0.0603 -0.1566,-0.17107 -3.23481,0.19388 -6.97326,0.6354 -5.83513,1.03456"
       style="fill:#2e5068;fill-opacity:1;fill-rule:nonzero;stroke:none;stroke-width:0.0173149"
       id="path836" />
    <path
       d="m 124.22739,106.60394 c 0,0.88565 5.40177,10.0967 5.40177,10.0967 l -0.80028,5.66844 1.80059,31.17574 -6.20205,31.70672 -3.60119,5.66811 1.60057,1.59502 -0.60026,3.89713 -9.54138,1.53311 -3.59455,-3.78797 4.33301,-6.95684 2.60087,-23.02712 1.80059,-2.65712 -1.40036,-1.94841 1.00031,-6.02263 c 0,0 -2.60087,-17.00498 -8.00283,-23.20471 l -8.80292,30.99865 0.40023,5.66827 c 0,0 -0.20021,18.77727 2.60088,23.02794 l 2.20082,3.366 -1.00049,1.41581 1.60056,2.30374 -10.339818,4.36146 -1.06398,-4.00792 -2.00079,-3.18841 1.80077,-2.30211 -7.002517,-24.44505 1.800767,-15.23368 -0.40023,-21.07905 -1.60038,-9.21104 5.20156,-15.05658 31.810728,-0.3542"
       style="fill:#2e5068;fill-opacity:1;fill-rule:nonzero;stroke:none;stroke-width:0.0173149"
       id="path838" />
    <path
       d="m 97.164992,108.02415 -5.2932,0.51125 -4.65669,13.47932 0.29847,1.71868 6.1244,-9.96848 c -0.80267,3.38197 -1.86334,6.71636 -3.17813,9.9706 -0.0835,0.20707 0.28854,0.29619 0.37135,0.0906 1.45592,-3.6112 2.60399,-7.3182 3.43372,-11.08157 l 2.90008,-4.72038"
       style="fill:#16232c;fill-opacity:1;fill-rule:nonzero;stroke:none;stroke-width:0.0173149"
       id="path840" />
    <path
       d="m 122.72674,109.84286 c 1.0868,1.87069 5.45311,7.55558 6.53972,9.42643 l 0.0846,-0.59891 c -0.51708,-0.89005 -1.00325,-2.22765 -1.49052,-3.55205 l 1.68134,2.20012 0.0872,-0.61781 c 0,0 -5.40177,-9.21105 -5.40177,-10.0967 l -2.85021,0.0318 3.0576,4.00043 c -0.90628,-0.47313 -1.76324,-0.88843 -1.70804,-0.79328"
       style="fill:#16232c;fill-opacity:1;fill-rule:nonzero;stroke:none;stroke-width:0.0173149"
       id="path842" />
    <path
       d="m 127.82655,118.68668 c -0.0659,-0.21115 -0.43759,-0.12154 -0.37135,0.0907 0.54045,1.73106 1.02957,3.4745 1.46826,5.22789 l -0.0946,-1.63625 0.0223,-0.15754 c -0.31871,-1.17989 -0.65933,-2.35523 -1.02459,-3.52485"
       style="fill:#16232c;fill-opacity:1;fill-rule:nonzero;stroke:none;stroke-width:0.0173149"
       id="path844" />
    <path
       d="m 130.3424,153.86757 c -0.45635,0.41725 -0.90572,0.84036 -1.34938,1.26804 -1.11697,-9.17814 -2.34454,-18.35888 -2.41391,-27.61098 -0.005,-0.21914 -0.3903,-0.21979 -0.38552,0 0.085,3.98283 0.2902,7.96337 0.61922,11.93627 0.24749,5.3882 1.52769,10.73193 1.74833,16.09538 -0.3351,0.36608 -6.61278,6.56663 -4.98001,6.00373 1.48556,-1.83175 3.07655,-3.5954 4.76526,-5.28296 -0.28614,0.60493 -0.96093,0.90178 0.0979,1.27292 -1.92866,7.04954 -2.81396,14.40212 -2.84505,21.71087 l 0.44126,-2.25486 c 0.20628,-4.38428 0.72797,-8.76725 1.27394,-13.10785 0.34871,-2.16803 0.83708,-4.31944 1.55364,-6.41691 0.0462,-0.29229 -0.46022,-0.22174 -0.60026,-0.41921 0.36251,-0.40828 0.56291,-0.87001 0.65768,-1.35829 0.0891,-0.17058 1.1799,-1.01713 1.57609,-1.50541 l 0.0672,-0.34263 c -0.0489,-0.0111 -0.12255,-0.008 -0.22634,0.0119"
       style="fill:#16232c;fill-opacity:1;fill-rule:nonzero;stroke:none;stroke-width:0.0173149"
       id="path846" />
    <path
       d="m 122.03301,156.40951 c -1.54794,1.71998 -3.09606,3.43997 -4.644,5.15979 l -1.49107,2.20028 c 1.45261,-1.61392 2.90523,-3.22784 4.35784,-4.84176 0.1531,-0.31607 2.92972,-2.81467 1.77723,-2.51831"
       style="fill:#16232c;fill-opacity:1;fill-rule:nonzero;stroke:none;stroke-width:0.0173149"
       id="path848" />
    <path
       d="m 116.71165,151.72936 c 0.79568,1.59698 1.59137,3.19429 2.38705,4.79143 0.0999,0.20023 0.43188,0.0271 0.33252,-0.17205 -0.9935,-1.99451 -1.98719,-3.98886 -2.98069,-5.98321 0.10011,0.5049 0.18733,0.96288 0.26112,1.36383"
       style="fill:#16232c;fill-opacity:1;fill-rule:nonzero;stroke:none;stroke-width:0.0173149"
       id="path850" />
    <path
       d="m 113.02362,187.2001 -0.23426,0.54254 c 1.47654,-2.08216 2.86641,-4.21158 4.16059,-6.3866 0.11556,-0.19389 -0.21677,-0.36658 -0.33251,-0.1727 -1.11091,1.86547 -2.29044,3.69836 -3.53494,5.49541 l -0.0589,0.52135"
       style="fill:#16232c;fill-opacity:1;fill-rule:nonzero;stroke:none;stroke-width:0.0173149"
       id="path852" />
    <path
       d="m 116.17175,173.65464 c -0.64663,3.08577 -1.58897,6.13896 -2.65111,9.1449 l -0.19671,1.74165 c 1.31313,-3.53707 2.39146,-7.1442 3.21916,-10.79531 0.0488,-0.21343 -0.32239,-0.3063 -0.37134,-0.0912"
       style="fill:#16232c;fill-opacity:1;fill-rule:nonzero;stroke:none;stroke-width:0.0173149"
       id="path854" />
    <path
       d="m 98.023242,187.98703 c 0.0938,-1.01339 -2.01387,1.70743 -3.66706,3.78145 l 0.0613,0.21506 -1.75661,2.24671 c 1.96657,-1.94367 3.46151,-4.24741 5.36239,-6.24322"
       style="fill:#16232c;fill-opacity:1;fill-rule:nonzero;stroke:none;stroke-width:0.0173149"
       id="path856" />
    <path
       d="m 102.30454,193.54923 c -2.12004,-0.7918 0.25523,-3.08577 -0.49942,-4.44781 -0.57026,-0.73478 -1.47801,-1.31316 -1.22205,-2.33469 1.08754,-3.29106 -0.36029,-6.44526 -1.175478,-9.64508 -1.08054,-4.20179 -1.82783,-8.46648 -2.31363,-12.75365 0.96056,-0.67451 2.15979,-1.21362 3.210338,-1.82458 l -0.03,-0.42703 c -1.101878,0.61373 -2.191618,1.24409 -3.267738,1.89236 -0.16083,-0.73478 -1.31258,-0.97722 -1.16206,-1.80568 0.3154,0.0337 3.50862,0.31688 2.5764,-0.29196 -0.83874,0.0583 -1.67822,0.0425 -2.50758,-0.0451 1.05625,-1.87558 1.81789,-2.56572 0.5883,-4.643 -0.4363,-1.76739 0.44826,-3.56916 0.67939,-5.32711 1.5875,-7.697 3.174628,-15.39399 4.761758,-23.09099 0.0442,-0.21457 -0.32681,-0.30662 -0.37134,-0.0908 -1.745018,8.46241 -3.490038,16.92499 -5.235048,25.3874 -1.45446,4.76649 2.15997,3.26874 -0.81078,7.71769 -0.90112,-0.12024 -1.78771,-0.32536 -2.64503,-0.61471 -1.12581,0.35077 2.25713,0.92068 2.57198,0.95099 -0.21898,0.93534 1.02993,1.25646 1.22499,2.05348 -5.18849,3.05352 -5.54328,4.09851 0.0795,0.36479 0.3833,3.83848 1.07833,7.64063 1.97503,11.41068 0.60265,3.40347 2.679078,6.77598 1.543158,10.24789 -0.598788,2.2907 1.22885,2.12615 1.29215,3.656 -0.10986,1.21378 -1.16316,2.67846 0.0204,3.72443 l -6.248608,-0.92214 3.19524,2.62795 c 1.04631,-0.14826 4.639208,-0.84883 6.034598,-0.71197 l 0.35404,-0.50181 -2.4866,-0.36658 c 0.0237,-0.0815 -0.0118,-0.17106 -0.13193,-0.18899"
       style="fill:#16232c;fill-opacity:1;fill-rule:nonzero;stroke:none;stroke-width:0.0173149"
       id="path858" />
    <path
       d="m 97.761942,154.24833 c 0.92799,1.98001 1.85598,3.96002 2.784148,5.94019 l 0.15604,-0.55003 c -0.856218,-1.82703 -1.712438,-3.65389 -2.568658,-5.48091 -0.0937,-0.19975 -0.46649,-0.11209 -0.37153,0.0908"
       style="fill:#16232c;fill-opacity:1;fill-rule:nonzero;stroke:none;stroke-width:0.0173149"
       id="path860" />
    <path
       d="m 104.46138,194.75976 c -1.79507,0.46107 -8.537938,2.24997 -7.036738,2.52531 2.33423,-0.8749 4.733608,-1.61131 7.176408,-2.20761 l -0.18033,-0.26068 0.0407,-0.057"
       style="fill:#16232c;fill-opacity:1;fill-rule:nonzero;stroke:none;stroke-width:0.0173149"
       id="path862" />
    <path
       d="m 90.004952,126.464 c -0.48175,1.17549 -0.94822,2.35603 -1.40164,3.54033 l 0.12715,0.73185 c 0.52905,-1.39984 1.07705,-2.79398 1.64584,-4.1816 0.0848,-0.20659 -0.28725,-0.2957 -0.37135,-0.0906"
       style="fill:#16232c;fill-opacity:1;fill-rule:nonzero;stroke:none;stroke-width:0.0173149"
       id="path864" />
    <path
       d="m 108.92744,129.60158 c -0.0712,-1.78222 -0.15697,-3.56412 -0.26462,-5.34487 0.97786,-0.54303 1.96418,-1.07367 2.95805,-1.59323 0.21511,2.22586 -0.60596,4.34778 -1.32031,6.44672 z m -0.65142,-11.05013 c 1.00841,0.007 2.01699,-0.016 3.02374,-0.0697 0.12605,1.26282 0.23959,2.52874 0.30344,3.79416 -0.9957,0.51777 -1.98331,1.04825 -2.96228,1.59063 -0.10617,-1.77245 -0.22744,-3.54424 -0.3649,-5.31506 z m 13.72184,15.28288 c 0.23352,0.0748 0.33399,-0.25465 0.10231,-0.32894 -3.13028,-0.99954 -6.37687,-1.71885 -9.67663,-2.1066 l 1.3757,-2.8963 c 1.27836,-0.67547 2.57088,-1.33027 3.87831,-1.96078 0.63264,-1.05037 -3.27161,1.33858 -3.62602,1.42966 l 0.11666,-0.24537 -3.41164,1.22111 c 0.74471,-2.10106 1.47323,-4.24953 1.24044,-6.478 3.2637,-1.69359 6.61186,-3.26026 10.03344,-4.68943 0.22395,-0.0937 0.0287,-0.38776 -0.19432,-0.2944 -3.36012,1.40521 -6.6505,2.94028 -9.85991,4.59852 -0.0839,-1.20955 -0.18475,-2.41681 -0.29866,-3.62408 0.37889,-0.0666 5.94554,-0.30434 4.60057,-0.83563 -1.53322,0.23722 -3.07986,0.40291 -4.63203,0.49708 -0.36656,-3.80215 -0.89781,-7.59159 -1.57886,-11.35952 l -0.3868,0.004 c 0.68546,3.77331 1.21156,7.56829 1.58511,11.37581 -1.00417,0.0533 -2.01055,0.0771 -3.01656,0.0702 -0.78262,-10.92158 -1.57701,-11.08597 -0.38606,-0.005 -1.74612,-0.0239 -3.4904,-0.14109 -5.22107,-0.34686 -1.16353,0.62709 4.79341,0.63849 5.24683,0.68753 0.14703,1.84185 0.26977,3.68517 0.37778,5.52914 -0.39029,0.21767 -0.78059,0.43533 -1.16831,0.65658 -0.39637,0.77177 0.95467,-0.15021 1.19113,-0.26654 0.12532,2.18089 0.23315,4.36293 0.30859,6.54562 -0.22633,0.0701 -0.21437,0.35892 0.0118,0.37146 -0.006,0.13604 -0.005,0.2729 -3.7e-4,0.41025 l 0.41294,-1.45426 c 0.81739,0.93795 1.57038,2.12469 2.26007,3.46115 l 0.9878,-2.07956 c 3.31521,0.39395 6.58296,1.10202 9.72778,2.11263"
       style="fill:#16232c;fill-opacity:1;fill-rule:nonzero;stroke:none;stroke-width:0.0173149"
       id="path866" />
    <path
       d="m 113.53131,193.91744 c 0.0442,-0.0114 0.0885,-0.0228 0.13268,-0.0342 -0.0344,0.0146 -0.0907,0.044 -0.13268,0.0342 z m 8.18169,-4.39242 c -0.0158,0.002 -0.0302,0.002 -0.0477,0.005 -1.91983,1.85407 -4.51206,2.9978 -7.17899,3.77168 -0.30951,0.21343 -3.1601,0.51158 -2.26045,0.92215 2.81783,0.10427 5.64155,0.0309 8.44723,-0.2232 0.24419,-0.0212 0.24676,-0.36332 0,-0.34051 -0.26517,0.0244 -0.5307,0.0456 -0.79605,0.0652 l 1.49199,-2.26464 -0.54284,-0.54091 0.0762,-0.11893 -0.46997,0.2004 c 0.078,-0.057 0.34944,-0.24765 0.64368,-0.47411 l 0.63688,-1.00198"
       style="fill:#16232c;fill-opacity:1;fill-rule:nonzero;stroke:none;stroke-width:0.0173149"
       id="path868" />
    <path
       d="m 92.216642,105.36393 c 6.00202,2.12566 26.208738,2.12566 31.410488,-1.06275 l -5.80182,-20.901952 c 0,0 -5.40195,-22.673419 -6.00203,-22.851005 -0.60025,-0.175958 -6.20223,-3.010828 -6.20223,-3.010828 l -14.804948,1.417435 1.40054,46.4091"
       style="fill:#dadaed;fill-opacity:1;fill-rule:nonzero;stroke:none;stroke-width:0.0173149"
       id="path870" />
    <path
       d="m 99.243262,74.48063 c -0.64608,-4.879886 -8.42716,-15.5258 -8.42716,-15.5258 l 1.40054,46.4091 c 1.88744,0.66847 1.06986,1.43487 4.85837,1.64993 0.48267,-2.5535 4.564498,-21.116362 2.16825,-32.53323"
       style="fill:#16232c;fill-opacity:1;fill-rule:nonzero;stroke:none;stroke-width:0.0173149"
       id="path872" />
    <path
       d="m 108.25817,60.336422 c 0,0 10.27027,30.511834 11.52562,44.959728 1.30798,-0.33285 3.08409,-0.5295 3.84334,-0.99497 -3.43833,-10.930542 -8.30038,-32.65933 -11.80329,-43.752957 -0.60081,-0.175958 -3.56567,-0.211801 -3.56567,-0.211801"
       style="fill:#16232c;fill-opacity:1;fill-rule:nonzero;stroke:none;stroke-width:0.0173149"
       id="path874" />
    <path
       d="m 93.216942,46.023588 c 1.40054,7.085545 0.40024,9.565241 0.40024,9.565241 l 9.202968,5.314567 3.40116,-1.772608 -2.20064,-9.032482 -10.803728,-4.074718"
       style="fill:#f8a48e;fill-opacity:1;fill-rule:nonzero;stroke:none;stroke-width:0.0173149"
       id="path876" />
    <path
       d="m 93.216942,46.023588 c 1.40054,7.085545 9.603208,14.879808 9.603208,14.879808 l 3.40116,-1.772608 -2.20064,-9.032482 -10.803728,-4.074718"
       style="fill:#16232c;fill-opacity:1;fill-rule:nonzero;stroke:none;stroke-width:0.0173149"
       id="path878" />
    <path
       d="m 109.42244,38.053368 c 0.80028,1.858957 0.33583,3.915053 0.18107,5.611087 -0.15476,1.696034 0,3.032007 0,3.032007 0,0 -1.38141,6.590258 -5.58284,8.714781 -4.201438,2.126152 -10.003438,-5.66811 -10.003438,-5.66811 l -1.00031,-2.833241 c 0,0 -2.20082,-0.177587 -2.20082,-3.012457 0,-2.504134 1.40054,-1.770978 1.40054,-1.770978 0,0 -1.60057,-7.97185 3.20113,-9.210069 4.801508,-1.241477 12.404098,-1.241477 14.004668,5.13698"
       style="fill:#f8a48e;fill-opacity:1;fill-rule:nonzero;stroke:none;stroke-width:0.0173149"
       id="path880" />
    <path
       d="m 112.42336,33.801063 c 0,0 -4.00123,-1.948566 -4.60149,-2.126152 -0.60025,-0.175958 -5.00172,-3.188414 -10.603508,-1.415806 -5.60198,1.770979 -7.20236,6.552785 -7.20236,6.552785 l 1.0003,5.66974 1.20034,-0.355173 2.00061,3.010827 2.40085,-4.250676 -0.80028,-1.948565 3.20112,-2.657284 5.201748,1.948566 5.20175,-0.175957 0.42893,2.124523 c -0.68453,0.632143 3.22708,-2.523686 2.57199,-6.376828"
       style="fill:#20384a;fill-opacity:1;fill-rule:nonzero;stroke:none;stroke-width:0.0173149"
       id="path882" />
    <path
       d="m 105.39324,50.350837 -4.72552,0.19225 c 0,0 1.96639,1.280579 3.80581,0.985688 1.83942,-0.293262 2.39128,-1.177938 2.39128,-1.177938 h -1.47157"
       style="fill:#ffffff;fill-opacity:1;fill-rule:nonzero;stroke:none;stroke-width:0.0173149"
       id="path884" />
    <path
       d="m 102.64129,41.377008 c -0.58222,-0.249273 -5.680368,-0.324218 -3.861748,0.782033 1.10097,-0.131968 3.724468,0.951474 4.281298,-0.0016 0.11096,-0.285117 -0.0609,-0.697313 -0.41955,-0.780404"
       style="fill:#16232c;fill-opacity:1;fill-rule:nonzero;stroke:none;stroke-width:0.0173149"
       id="path886" />
    <path
       d="m 109.36484,41.637686 c -0.77065,0.08309 -3.25486,-0.584896 -3.20058,0.478995 0.51672,0.819505 2.35797,0.145002 3.26333,0.190621 0.44163,-0.04073 0.35625,-0.645178 -0.0627,-0.669616"
       style="fill:#16232c;fill-opacity:1;fill-rule:nonzero;stroke:none;stroke-width:0.0173149"
       id="path888" />
    <path
       d="m 100.01796,45.238296 c 1.18562,0 1.18764,-1.630864 0,-1.630864 -1.185788,0 -1.187818,1.630864 0,1.630864 v 0"
       style="fill:#16232c;fill-opacity:1;fill-rule:nonzero;stroke:none;stroke-width:0.0173149"
       id="path890" />
    <path
       d="m 107.43525,45.238296 c 1.1858,0 1.18782,-1.630864 0,-1.630864 -1.18561,0 -1.18763,1.630864 0,1.630864 v 0"
       style="fill:#16232c;fill-opacity:1;fill-rule:nonzero;stroke:none;stroke-width:0.0173149"
       id="path892" />
    <path
       d="m 106.80224,47.8744 c -0.54137,-1.401143 -1.02184,-2.759925 -1.0671,-4.260451 -1.15065,-1.10951 -0.0521,4.068201 0.15788,4.470622 -0.19524,0.25416 -2.15739,1.331085 -1.08753,1.352265 0.57321,-0.399162 2.93725,-0.661469 1.99675,-1.562436"
       style="fill:#16232c;fill-opacity:1;fill-rule:nonzero;stroke:none;stroke-width:0.0173149"
       id="path894" />
    <path
       d="m 111.25817,45.23015 c 0,0.808101 -0.74232,1.466312 -1.65466,1.466312 h -2.16807 c -0.91235,0 -1.65466,-0.658211 -1.65466,-1.466312 v -2.171771 h 5.47739 z m -7.53156,0 c 0,0.808101 -0.74232,1.466312 -1.65467,1.466312 h -2.738688 c -0.91235,0 -1.65467,-0.658211 -1.65467,-1.466312 v -2.171771 h 6.048028 z m -6.377048,-2.626327 -3.9808,-0.553941 -0.0532,0.29978 4.0073,0.557198 h 0.0132 v 2.32329 c 0,0.975912 0.89597,1.76935 1.99712,1.76935 h 2.738688 c 1.10115,0 1.99694,-0.793438 1.99694,-1.76935 v -2.32329 h 1.36944 v 2.32329 c 0,0.975912 0.89579,1.76935 1.99712,1.76935 h 2.16807 c 1.10114,0 1.99712,-0.793438 1.99712,-1.76935 V 42.90686 42.755341 42.603823 H 97.349562"
       style="fill:#16232c;fill-opacity:1;fill-rule:nonzero;stroke:none;stroke-width:0.0173149"
       id="path896" />
    <path
       d="m 91.745742,43.346754 c 0.51248,0.552311 0.56419,1.254511 0.47237,1.935532 -0.0162,0.57512 0.99221,0.573491 1.0084,0 0.26057,-0.395904 -1.35453,-3.0483 -1.48077,-1.935532 v 0"
       style="fill:#16232c;fill-opacity:1;fill-rule:nonzero;stroke:none;stroke-width:0.0173149"
       id="path898" />
    <path
       d="m 90.973982,42.242132 0.0423,0.239498 1.20034,-0.355173 0.0357,0.05376 c 0.8704,-0.162923 1.77888,-0.151519 2.56978,0.07494 0.28688,0.102642 0.5537,0.23461 0.80525,0.386129 l 0.16819,-0.29815 c -0.35736,-0.231351 -0.64958,-0.3845 -0.75723,-0.374724 -1.12046,-0.53276 -2.80862,-0.200396 -4.06434,0.273711"
       style="fill:#16232c;fill-opacity:1;fill-rule:nonzero;stroke:none;stroke-width:0.0173149"
       id="path900" />
    <path
       d="m 90.618102,40.223509 0.069,0.392646 c 0.49629,0.136856 0.99424,0.270453 1.50212,0.355173 1.40772,0.27697 2.93008,0.351915 4.34423,0.06517 l 0.0846,-0.14989 -0.0697,-0.16944 c -1.91174,0.40405 -3.93407,-0.05376 -5.93026,-0.493659"
       style="fill:#16232c;fill-opacity:1;fill-rule:nonzero;stroke:none;stroke-width:0.0173149"
       id="path902" />
    <path
       d="m 96.097332,39.619063 -0.13948,-0.34051 c -1.87088,0.09124 -3.81243,-0.270453 -5.64504,-0.783662 l 0.0681,0.386128 c 0.88824,0.223206 1.66699,0.387758 1.80648,0.394275 1.25333,0.198767 2.59866,0.381241 3.90995,0.343769"
       style="fill:#16232c;fill-opacity:1;fill-rule:nonzero;stroke:none;stroke-width:0.0173149"
       id="path904" />
    <path
       d="m 100.14236,29.721457 c -0.188798,0.01141 -0.380358,0.0277 -0.573758,0.04725 2.816348,1.759575 4.233088,5.037596 3.448448,8.010951 l 0.35184,0.130339 c 0.83579,-2.992906 -0.50568,-6.295366 -3.22653,-8.188538"
       style="fill:#16232c;fill-opacity:1;fill-rule:nonzero;stroke:none;stroke-width:0.0173149"
       id="path906" />
    <path
       d="m 108.92431,32.142501 c -0.14924,-0.06843 -0.28983,-0.131968 -0.41864,-0.188991 0.36766,2.266266 -2.45955,4.809503 -4.7325,6.108004 l 0.44697,0.167811 c 0.98945,-0.57512 1.85837,-1.308276 2.63124,-2.106601 1.25645,-1.145353 2.16585,-2.60026 2.07293,-3.980223"
       style="fill:#16232c;fill-opacity:1;fill-rule:nonzero;stroke:none;stroke-width:0.0173149"
       id="path908" />
    <path
       d="m 112.27872,33.731006 c -0.0811,-0.0391 -0.19321,-0.09287 -0.33049,-0.159665 -0.47236,2.0675 -3.06864,3.721174 -5.18003,4.566747 -0.005,0.0016 -0.01,0.0033 -0.0147,0.0049 l 0.98485,-0.03259 c 2.13311,-0.944956 4.07962,-2.518798 4.54039,-4.379385"
       style="fill:#16232c;fill-opacity:1;fill-rule:nonzero;stroke:none;stroke-width:0.0173149"
       id="path910" />
    <path
       d="m 109.55456,38.706691 c 0.79936,-0.360061 1.56744,-0.798325 2.26762,-1.243107 0.0714,-0.149889 0.13875,-0.304666 0.20205,-0.462702 -0.75041,0.516467 -1.6313,0.985687 -2.54052,1.355523 l 0.0708,0.350286"
       style="fill:#16232c;fill-opacity:1;fill-rule:nonzero;stroke:none;stroke-width:0.0173149"
       id="path912" />
    <path
       d="m 96.154202,30.650122 c -0.15679,0.0668 -0.3097,0.133597 -0.45912,0.205283 2.58744,1.111139 5.187018,3.654376 5.974788,5.475861 0.12826,0.338881 0.21659,0.687537 0.25689,1.039452 l 0.40299,0.14989 c -0.0894,-1.187713 -0.72704,-2.349358 -1.55953,-3.281281 -1.322888,-1.246365 -2.834568,-2.737115 -4.616018,-3.589205"
       style="fill:#16232c;fill-opacity:1;fill-rule:nonzero;stroke:none;stroke-width:0.0173149"
       id="path914" />
    <path
       d="m 90.147022,36.481155 c -0.0904,0.210172 -0.13102,0.330735 -0.13102,0.330735 l 0.007,0.0391 c 2.34104,0.36169 5.17635,0.529502 7.30081,0.837427 l 0.34595,-0.286745 c -0.52297,-0.04073 -1.04907,-0.06517 -1.54812,-0.131968 -1.98038,-0.239498 -3.99995,-0.443152 -5.97443,-0.78855"
       style="fill:#16232c;fill-opacity:1;fill-rule:nonzero;stroke:none;stroke-width:0.0173149"
       id="path916" />
    <path
       d="m 92.608402,32.984816 c -0.10691,0.102642 -0.21014,0.206913 -0.30951,0.311184 2.45421,0.573491 5.10109,1.660191 6.68012,3.018974 l 0.0399,-0.03421 0.88456,0.332364 c -0.0311,-0.03259 -0.0628,-0.06354 -0.0951,-0.0945 -2.00761,-1.578729 -4.5288,-2.880489 -7.19997,-3.533812"
       style="fill:#16232c;fill-opacity:1;fill-rule:nonzero;stroke:none;stroke-width:0.0173149"
       id="path918" />
    <path
       d="m 104.58247,51.898611 -2.59885,0.609334 -2.789488,-1.471199 -0.88806,-2.016994 -2.11489,-1.349007 -2.37398,-3.418136 -0.64626,6.787395 9.585728,6.163398 7.18911,-4.850234 -0.96995,-3.535441 -3.13801,3.638083 -1.25535,-0.557199"
       style="fill:#20384a;fill-opacity:1;fill-rule:nonzero;stroke:none;stroke-width:0.0173149"
       id="path920" />
    <path
       d="m 93.540992,47.152648 -0.0545,0.573491 c 0.55259,-0.55394 1.09599,-1.114397 1.63221,-1.681371 l -0.21714,-0.29815 c -0.44752,0.472478 -0.90149,0.941698 -1.36061,1.40603"
       style="fill:#16232c;fill-opacity:1;fill-rule:nonzero;stroke:none;stroke-width:0.0173149"
       id="path922" />
    <path
       d="m 96.191182,47.670745 c -0.79402,1.259399 -1.58805,2.520427 -2.38207,3.779826 l 0.31393,0.202026 c 0.77323,-1.226815 1.54628,-2.453629 2.31951,-3.680444 -0.0834,-0.102641 -0.16691,-0.203654 -0.25137,-0.301408"
       style="fill:#16232c;fill-opacity:1;fill-rule:nonzero;stroke:none;stroke-width:0.0173149"
       id="path924" />
    <path
       d="m 97.661832,48.685759 c 0,0 -1.1626,2.971725 -1.6289,4.195281 l 0.32607,0.208542 c 0.4501,-1.179566 1.22095,-3.059704 1.67086,-4.2409 -0.0935,-0.112417 -0.36803,-0.162923 -0.36803,-0.162923"
       style="fill:#16232c;fill-opacity:1;fill-rule:nonzero;stroke:none;stroke-width:0.0173149"
       id="path926" />
    <path
       d="m 98.888672,50.782585 c -0.42674,1.04271 -0.83378,2.093567 -1.22003,3.149312 l 0.327,0.210172 c 0.37925,-1.041082 0.77985,-2.075647 1.19849,-3.105323 -0.10434,-0.08146 -0.20591,-0.166183 -0.30546,-0.254161"
       style="fill:#16232c;fill-opacity:1;fill-rule:nonzero;stroke:none;stroke-width:0.0173149"
       id="path928" />
    <path
       d="m 100.77004,51.92305 c -0.0942,-0.03421 -0.18568,-0.07006 -0.27621,-0.109159 -0.36913,1.073666 -0.738268,2.148962 -1.107218,3.222628 l 0.32957,0.2118 c 0.377968,-1.099733 0.756118,-2.199468 1.134268,-3.300831 -0.0267,-0.0065 -0.0532,-0.01466 -0.0804,-0.02444"
       style="fill:#16232c;fill-opacity:1;fill-rule:nonzero;stroke:none;stroke-width:0.0173149"
       id="path930" />
    <path
       d="m 102.44623,52.433 c -0.0328,0.0016 -0.55204,0 -0.55204,0 0,0 -0.51396,2.58071 -0.78593,3.711399 l 0.34042,0.218318 c 0.29001,-1.205635 1.04576,-3.932975 0.99755,-3.929717"
       style="fill:#16232c;fill-opacity:1;fill-rule:nonzero;stroke:none;stroke-width:0.0173149"
       id="path932" />
    <path
       d="m 103.67453,56.584293 c 0.0778,-1.239849 0.0598,-4.314216 0.0598,-4.314216 h -0.36803 c 0,0 -0.004,3.255212 -0.0959,4.586298 l 0.40409,-0.272082"
       style="fill:#16232c;fill-opacity:1;fill-rule:nonzero;stroke:none;stroke-width:0.0173149"
       id="path934" />
    <path
       d="m 104.83843,52.107153 c 0,0 0.49132,2.393347 0.63725,3.26173 l 0.34723,-0.232981 c -0.13672,-0.814618 -0.29571,-1.889913 -0.43244,-2.702902 -0.11647,0.05051 -0.41881,-0.320959 -0.55204,-0.325847"
       style="fill:#16232c;fill-opacity:1;fill-rule:nonzero;stroke:none;stroke-width:0.0173149"
       id="path936" />
    <path
       d="m 106.31055,51.94423 c 0.2199,0.547423 0.65914,1.722102 0.87904,2.269525 l 0.32093,-0.216689 c -0.22064,-0.549052 -0.6113,-1.829631 -0.83194,-2.378684 -0.0171,0.01466 -0.27602,0.283488 -0.36803,0.325848"
       style="fill:#16232c;fill-opacity:1;fill-rule:nonzero;stroke:none;stroke-width:0.0173149"
       id="path938" />
    <path
       d="m 107.41465,50.966688 c 0.29663,0.547424 0.90112,1.730248 1.2432,2.256492 l 0.30896,-0.208543 c -0.34907,-0.539276 -1.06673,-1.813339 -1.36815,-2.373795 -0.0977,0.08309 -0.0868,0.242756 -0.18401,0.325846"
       style="fill:#16232c;fill-opacity:1;fill-rule:nonzero;stroke:none;stroke-width:0.0173149"
       id="path940" />
    <path
       d="m 109.36355,50.254712 c -0.1025,0.07983 -0.55922,-0.834168 -0.66079,-0.754336 0.2797,0.630515 0.91528,2.254863 1.19499,2.885377 l 0.048,-0.03259 -0.36196,-1.601538 c -0.0734,-0.166183 -0.14684,-0.332364 -0.22027,-0.496917"
       style="fill:#16232c;fill-opacity:1;fill-rule:nonzero;stroke:none;stroke-width:0.0173149"
       id="path942" />
    <path
       d="m 104.20211,50.199319 -5.059138,0.335622 4.830958,-1.212151 z"
       style="fill:#16232c;fill-opacity:1;fill-rule:nonzero;stroke:none;stroke-width:0.0173149"
       id="path944" />
    <path
       d="m 104.58247,50.231903 4.23106,-0.101012 -4.00804,-0.694055 z"
       style="fill:#16232c;fill-opacity:1;fill-rule:nonzero;stroke:none;stroke-width:0.0173149"
       id="path946" />
    <path
       d="m 101.87763,58.777244 -1.85967,3.57943 2.45992,0.848832 c 0,0 4.58695,21.936516 4.38693,34.513073 l 5.36331,5.556831 2.85389,-5.705417 c 0,0 -6.64038,-29.84955 -10.84181,-34.809269 l 1.25517,-1.010126 -3.61774,-2.973354"
       style="fill:#f03e65;fill-opacity:1;fill-rule:nonzero;stroke:none;stroke-width:0.0173149"
       id="path948" />
    <path
       d="m 93.399122,52.85986 9.334358,5.917384 3.08778,-3.188415 2.40084,3.366001 -1.40053,4.959393 -4.12195,-4.589556 -3.880698,5.47586 -7.60259,-9.211698 2.18279,-2.728969"
       style="fill:#dadaed;fill-opacity:1;fill-rule:nonzero;stroke:none;stroke-width:0.0173149"
       id="path950" />
    <path
       d="m 107.79335,58.637129 0.24492,0.343769 -1.29859,4.599332 -4.05662,-4.516241 -3.874998,5.466085 -7.38085,-8.942873 0.01,-0.01141 c -0.11096,0.04562 -0.22192,0.08961 -0.33343,0.133598 l 7.7257,9.360447 3.886768,-5.482867 4.18726,4.661243 1.48465,-5.257543 0.0178,-0.06191 -0.47733,-0.669615 c -0.0453,0.12545 -0.0904,0.252531 -0.13525,0.377982"
       style="fill:#16232c;fill-opacity:1;fill-rule:nonzero;stroke:none;stroke-width:0.0173149"
       id="path952" />
    <path
       d="m 91.016302,104.12392 c 3.60118,2.48002 25.008418,3.01131 33.611318,-0.70839 l 0.40005,5.13698 c 0,0 -21.40723,3.89696 -34.011368,0.17709 v -4.60568"
       style="fill:#16232c;fill-opacity:1;fill-rule:nonzero;stroke:none;stroke-width:0.0173149"
       id="path954" />
    <path
       d="m 112.85837,109.83993 -3.61093,0.14712 -0.0283,-3.71759 3.60615,-0.21066 c 0.004,-0.20366 0.008,-0.40731 0.0132,-0.61113 l -5.17488,0.32243 0.0789,5.02603 5.16494,-0.21034 c -0.0197,-0.29896 -0.036,-0.44657 -0.0491,-0.74586"
       style="fill:#ede2e2;fill-opacity:1;fill-rule:nonzero;stroke:none;stroke-width:0.0173149"
       id="path956" />
    <path
       d="m 101.4198,111.56382 h -1.600568 v -5.89669 h 1.771698 l -0.17113,5.89669"
       style="fill:#2e5068;fill-opacity:1;fill-rule:nonzero;stroke:none;stroke-width:0.0173149"
       id="path958" />
    <path
       d="m 121.02626,110.67801 h -1.80059 l -0.17114,-5.89653 1.62946,-0.3032 0.34227,6.19973"
       style="fill:#2e5068;fill-opacity:1;fill-rule:nonzero;stroke:none;stroke-width:0.0173149"
       id="path960" />
    <path
       d="m 92.258042,54.122518 c 0,0.884675 7.37718,15.683347 7.961238,20.597121 2.0008,16.827722 -11.603818,46.763621 -11.603818,46.763621 l -11.203777,-0.1771 c 0,0 4.001411,-18.77629 4.201436,-19.6621 0.200025,-0.88565 4.401467,-11.15945 4.401467,-11.15945 l -1.80059,-4.251326 c 0,0 -7.80262,-21.610344 -6.802313,-22.672605 1.000307,-1.063891 4.001411,-1.772608 4.601486,-1.772608 0.600257,0 7.002341,-3.188414 7.002341,-3.188414 l 3.24253,-4.477139"
       style="fill:#2e5068;fill-opacity:1;fill-rule:nonzero;stroke:none;stroke-width:0.0173149"
       id="path962" />
    <path
       d="M 90.156772,112.63358 83.187375,97.487879 c -0.809118,2.036056 -1.49623,3.810781 -1.574254,4.156181 -0.01106,0.0494 -0.03458,0.15673 -0.0679,0.31021 l 8.299831,10.62766 -10.212303,-1.69066 c -0.08649,0.40601 -0.173344,0.81316 -0.260016,1.21916 1.076307,2.36109 3.365825,7.16082 4.387112,9.29609 l 4.855617,0.0767 c 0,0 1.53965,-3.38783 3.50677,-8.52432 l -1.96546,-0.32536"
       style="fill:#16232c;fill-opacity:1;fill-rule:nonzero;stroke:none;stroke-width:0.0173149"
       id="path964" />
    <path
       d="m 90.081512,95.808952 c 1.46255,0.601514 -3.875365,-4.755412 -4.023129,-5.214531 0.400415,0.06142 5.136599,2.737441 4.394839,1.659377 -1.53156,-0.712465 -3.06294,-1.424767 -4.594499,-2.137069 l 0.155865,0.367881 c 0,0 -0.06349,0.155267 -0.174816,0.428164 1.556217,1.4668 2.66748,3.43622 4.24174,4.896178"
       style="fill:#16232c;fill-opacity:1;fill-rule:nonzero;stroke:none;stroke-width:0.0173149"
       id="path966" />
    <path
       d="m 85.085674,98.674452 c 0.505678,0.193716 7.588428,4.101598 6.839298,2.890588 -2.26486,-0.9777 -4.482058,-2.040453 -6.644974,-3.185154 -0.213274,-0.112743 -0.407228,0.181823 -0.194324,0.294566"
       style="fill:#16232c;fill-opacity:1;fill-rule:nonzero;stroke:none;stroke-width:0.0173149"
       id="path968" />
    <path
       d="m 89.621652,65.295 c 0.73165,-0.58571 1.46329,-1.170606 2.19494,-1.755501 0.97196,-0.436635 -2.73668,-0.837427 -3.06975,-1.02316 0.23499,-1.524965 0.46998,-3.051558 0.70496,-4.576523 l -0.43611,0.659841 c 0,0 -0.0215,0.01141 -0.055,0.0277 -0.20941,1.358782 -0.41882,2.717565 -0.62823,4.076347 -0.0294,0.19225 0.26167,0.285116 0.34834,0.148261 0.89211,0.198767 1.7844,0.397533 2.67651,0.5963 -0.22782,0.335622 -2.80698,1.850811 -2.05564,2.026932 4.51206,4.844206 8.08545,10.375134 10.46569,16.292844 0.14371,0.356476 0.281168,0.714745 0.416238,1.073829 0.0282,-0.285279 0.0543,-0.569255 0.0777,-0.851602 C 97.864862,75.927232 94.253012,70.2412 89.621712,65.295004"
       style="fill:#16232c;fill-opacity:1;fill-rule:nonzero;stroke:none;stroke-width:0.0173149"
       id="path970" />
    <path
       d="M 78.411992,63.027919 C 77.611894,62.851962 75.81112,64.09181 75.81112,64.09181 l -0.200024,7.793611 -4.201438,19.839201 -1.400357,2.834055 1.400357,1.594207 -0.40005,2.65712 13.804647,20.724686 c 0,0 5.801817,-1.59404 7.202357,-5.13681 l -10.941733,-17.184527 1.138317,-1.060469 2.000802,-9.9196 0.20002,-7.971035 -6.002026,-15.23433"
       style="fill:#2e5068;fill-opacity:1;fill-rule:nonzero;stroke:none;stroke-width:0.0173149"
       id="path972" />
    <path
       d="m 85.525289,118.83477 c 0.400232,-2.1255 2.690123,-5.6769 6.491323,-4.43689 0,0 -1.88965,3.9056 -6.491323,4.43689"
       style="fill:#ffffff;fill-opacity:1;fill-rule:nonzero;stroke:none;stroke-width:0.0173149"
       id="path974" />
    <path
       d="m 91.459232,114.89447 -2.64375,7.47461 -2.60087,-3.54278 c 0,0 1.84365,-3.04618 5.24462,-3.93183"
       style="fill:#f8a48e;fill-opacity:1;fill-rule:nonzero;stroke:none;stroke-width:0.0173149"
       id="path976" />
    <path
       d="m 78.160076,74.957833 c 0.07839,-0.208705 -0.293505,-0.29815 -0.371343,-0.09059 -1.648778,4.393396 -3.503468,8.725859 -5.558551,12.982889 l -0.31761,1.499548 c 2.328713,-4.709631 4.418207,-9.512129 6.247504,-14.391852"
       style="fill:#16232c;fill-opacity:1;fill-rule:nonzero;stroke:none;stroke-width:0.0173149"
       id="path978" />
    <path
       d="m 75.144248,74.089939 c 1.312398,-2.294126 3.874075,-7.722576 2.656629,-7.109169 -0.548549,2.041106 -1.355272,4.020465 -2.400479,5.899136 l -0.25615,1.210033"
       style="fill:#16232c;fill-opacity:1;fill-rule:nonzero;stroke:none;stroke-width:0.0173149"
       id="path980" />
    <path
       d="m 73.772046,94.717039 c -0.21493,0.109484 -0.02116,0.404213 0.194136,0.294403 1.731585,-0.88272 3.556097,-1.611803 5.449982,-2.175519 0.90867,-1.166044 -5.281055,1.651719 -5.644118,1.881116"
       style="fill:#16232c;fill-opacity:1;fill-rule:nonzero;stroke:none;stroke-width:0.0173149"
       id="path982" />
    <path
       d="m 81.074879,97.213353 0.02321,-0.02151 c -0.837453,-1.036846 -1.545362,-2.172586 -2.265045,-3.29187 -1.278171,-0.561272 1.983866,3.418624 2.144697,3.738443 -1.212293,-0.855837 -2.424769,-1.711675 -3.637062,-2.567675 -0.645342,-0.675644 -1.233638,-0.441034 -1.991229,-0.07462 -0.249341,0.131154 -2.11176,0.695521 -1.096547,0.825045 2.343434,-0.939906 1.889837,-1.285793 3.951913,0.293262 0.285407,0.103131 2.353372,1.716563 4.00325,2.878534 l -1.133163,-1.779614"
       style="fill:#16232c;fill-opacity:1;fill-rule:nonzero;stroke:none;stroke-width:0.0173149"
       id="path984" />
    <path
       d="m 78.766958,71.023229 c -1.224622,1.347867 -2.495063,2.66266 -3.808381,3.943239 l -0.130651,0.617643 c 2.064284,-1.945796 4.976145,-4.772519 3.939032,-4.560882"
       style="fill:#16232c;fill-opacity:1;fill-rule:nonzero;stroke:none;stroke-width:0.0173149"
       id="path986" />
    <path
       d="m 84.509709,73.057004 c -0.10434,-0.312976 0.09937,-4.186158 -0.562352,-3.223117 0.218428,2.997468 0.28375,6.003082 0.198554,9.005763 -1.345519,-5.251352 -3.729257,-10.274123 -5.477585,-15.433748 -0.07729,-0.206913 -0.449365,-0.118935 -0.371711,0.09124 1.124515,3.032496 2.248853,6.065481 3.373368,9.098466 2.08195,4.995562 2.379684,6.714079 2.234315,11.926655 0.07176,0.293914 0.451387,1.880464 0.451387,1.880464 0,0 -0.0806,-1.621741 -0.0944,-2.731576 0.292769,-3.531205 0.378705,-7.075281 0.248421,-10.614144"
       style="fill:#16232c;fill-opacity:1;fill-rule:nonzero;stroke:none;stroke-width:0.0173149"
       id="path988" />
    <path
       d="M 82.78659,93.67726 84.384207,85.695473 84.04176,80.138476 Z"
       style="fill:#16232c;fill-opacity:1;fill-rule:nonzero;stroke:none;stroke-width:0.0173149"
       id="path990" />
    <path
       d="m 120.62621,61.612113 5.6018,19.661452 2.00061,6.554088 1.20051,2.834055 0.80029,12.576562 1.40035,1.94856 0.20021,5.66827 -1.68576,5.85808 -5.5166,-5.32662 -7.00252,-38.08403 3.00111,-11.690417"
       style="fill:#2e5068;fill-opacity:1;fill-rule:nonzero;stroke:none;stroke-width:0.0173149"
       id="path992" />
    <path
       d="m 117.21291,69.614266 4.60093,26.993012 3.65161,11.719902 v -8.58786 l -3.08116,-7.375549 c 0,0 0.72539,-15.970744 0.79881,-16.165601 0.058,-0.154126 -0.14942,-3.467991 -0.36729,-6.901442 l -2.1896,-7.684615 -3.4133,8.002153"
       style="fill:#16232c;fill-opacity:1;fill-rule:nonzero;stroke:none;stroke-width:0.0173149"
       id="path994" />
    <path
       d="m 123.87095,89.264802 c -0.21382,0.07674 -1.58989,0.834168 -3.00074,1.686259 l 0.0666,0.362993 c 1.00896,-0.629862 2.05269,-1.216224 3.12844,-1.754849 0.21585,-0.108018 0.0219,-0.402747 -0.19432,-0.294403"
       style="fill:#16232c;fill-opacity:1;fill-rule:nonzero;stroke:none;stroke-width:0.0173149"
       id="path996" />
    <path
       d="m 125.5212,91.069343 c -1.45593,0.435821 -2.92787,0.828303 -4.41268,1.178263 l 0.0609,0.331224 c 2.10181,-0.469872 5.40379,-1.243596 4.35177,-1.509487"
       style="fill:#16232c;fill-opacity:1;fill-rule:nonzero;stroke:none;stroke-width:0.0173149"
       id="path998" />
    <path
       d="m 124.96658,87.049856 c 0.2337,0.149401 2.46176,1.790204 4.142,2.855236 l -0.26314,-0.621391 c -1.23566,-0.78578 -2.43894,-1.610662 -3.60652,-2.474971 -0.18898,-0.139789 -0.46261,0.100197 -0.27234,0.241126"
       style="fill:#16232c;fill-opacity:1;fill-rule:nonzero;stroke:none;stroke-width:0.0173149"
       id="path1000" />
    <path
       d="m 126.00129,100.47818 c 1.83722,1.51535 3.67442,3.03054 5.51164,4.54589 l -0.82219,-1.14372 c -1.4723,-1.21443 -2.94479,-2.42887 -4.4171,-3.6433 -0.18126,-0.1494 -0.45415,0.0912 -0.27235,0.24113"
       style="fill:#16232c;fill-opacity:1;fill-rule:nonzero;stroke:none;stroke-width:0.0173149"
       id="path1002" />
    <path
       d="m 131.7768,109.34741 c -0.81776,-1.487 -1.70711,-2.93523 -2.94296,-4.1961 -0.20112,-0.2812 -2.94682,-2.62991 -2.55266,-1.52643 2.71718,1.5613 4.16814,4.03986 5.52506,6.5611 l -0.0294,-0.83857"
       style="fill:#16232c;fill-opacity:1;fill-rule:nonzero;stroke:none;stroke-width:0.0173149"
       id="path1004" />
    <path
       d="m 125.0089,107.21588 c 0.43924,0.81397 5.47759,5.86004 5.59167,7.57758 0.1141,1.7177 -1.48352,2.72799 -1.48352,2.72799 l -4.10815,-10.30557"
       style="fill:#16232c;fill-opacity:1;fill-rule:nonzero;stroke:none;stroke-width:0.0173149"
       id="path1006" />
    <path
       d="m 124.43845,107.72111 c 0.43925,0.81396 5.47741,5.85987 5.59149,7.57757 0.11428,1.71754 -0.57044,2.7785 -0.57044,2.7785 l -5.02105,-10.35607"
       style="fill:#dadaed;fill-opacity:1;fill-rule:nonzero;stroke:none;stroke-width:0.0173149"
       id="path1008" />
    <path
       d="m 106.4793,56.475134 c 0,0.708717 2.94314,6.199241 4.94375,10.627666 2.0008,4.428262 8.40287,32.592856 9.40318,34.89562 1.00031,2.30276 5.20175,10.0967 5.20175,10.0967 l -1.40036,-13.285116 -3.20113,-6.022632 c 0,0 1.20034,-13.639471 1.00031,-16.11933 -0.20002,-2.47986 -1.20033,-14.347211 -1.80059,-15.055929 -0.60026,-0.708717 -5.6018,-1.772608 -5.6018,-1.772608 l -6.00221,-1.415806 -2.5429,-1.948565"
       style="fill:#2e5068;fill-opacity:1;fill-rule:nonzero;stroke:none;stroke-width:0.0173149"
       id="path1010" />
    <path
       d="m 119.03117,87.688842 c 0.0874,0.580823 -0.13728,1.086375 -0.50163,1.129386 -0.36454,0.04301 -0.73073,-0.392971 -0.81795,-0.973794 -0.0876,-0.580659 0.13709,-1.086374 0.50163,-1.129385 0.36435,-0.04301 0.73054,0.393134 0.81795,0.973793"
       style="fill:#16232c;fill-opacity:1;fill-rule:nonzero;stroke:none;stroke-width:0.0173149"
       id="path1012" />
    <path
       d="m 121.09968,96.560845 c 0.22708,0.550355 0.2072,1.062424 -0.0443,1.143885 -0.25154,0.0813 -0.63963,-0.298801 -0.86671,-0.849157 -0.22707,-0.550193 -0.2072,-1.062424 0.0443,-1.143723 0.25155,-0.08146 0.63963,0.298802 0.86671,0.848995"
       style="fill:#16232c;fill-opacity:1;fill-rule:nonzero;stroke:none;stroke-width:0.0173149"
       id="path1014" />
    <path
       d="m 116.5937,80.461228 c -0.52941,-4.574894 -1.28443,-9.127141 -2.06005,-13.673685 -0.87868,-3.595071 0.58664,-3.191021 -3.2142,-4.217439 0.70552,-0.364949 2.0733,-0.886304 1.89297,-1.243107 -1.02479,-0.860236 -2.05177,-1.733506 -3.01951,-2.652395 l -0.69264,-0.166182 c 1.03564,1.010126 2.15133,1.958341 3.25597,2.901668 -3.36306,1.68463 -1.99344,1.230073 0.82347,2.183176 1.11771,6.376502 2.27314,12.760824 2.85481,19.19663 0.0633,1.014851 0.10287,2.031005 0.13139,3.047974 0.14114,0.573328 0.2913,-3.022558 0.0278,-5.37664"
       style="fill:#16232c;fill-opacity:1;fill-rule:nonzero;stroke:none;stroke-width:0.0173149"
       id="path1016" />
  </g>
</svg>
